<svg width="26" height="23" viewBox="0 0 26 23" fill="none" xmlns="http://www.w3.org/2000/svg">
  <rect x="0.5" y="6.5" width="25" height="10" rx="5" fill="white" stroke="#2DCE89"/>
  <circle cx="18.5" cy="11.5" r="3.5" fill="#2DCE89"/>
  <path d="M8.58887 11.2104C8.58887 11.7817 8.44401 12.231 8.1543 12.5581C7.86621 12.8853 7.46501 13.0488 6.95068 13.0488C6.42497 13.0488 6.01888 12.8885 5.73242 12.5679C5.44759 12.2456 5.30518 11.7915 5.30518 11.2056C5.30518 10.6245 5.4484 10.1745 5.73486 9.85547C6.02132 9.53483 6.42822 9.37451 6.95557 9.37451C7.46826 9.37451 7.86865 9.53727 8.15674 9.86279C8.44482 10.1883 8.58887 10.6375 8.58887 11.2104ZM5.74463 11.2104C5.74463 11.6938 5.84717 12.0609 6.05225 12.3115C6.25895 12.5605 6.55843 12.6851 6.95068 12.6851C7.34619 12.6851 7.64486 12.5605 7.84668 12.3115C8.0485 12.0625 8.14941 11.6955 8.14941 11.2104C8.14941 10.7303 8.0485 10.3665 7.84668 10.1191C7.64648 9.87012 7.34945 9.74561 6.95557 9.74561C6.56006 9.74561 6.25895 9.87093 6.05225 10.1216C5.84717 10.3706 5.74463 10.7336 5.74463 11.2104ZM12.1753 13H11.7017L9.75098 10.0044H9.73145C9.75749 10.356 9.77051 10.6782 9.77051 10.9712V13H9.38721V9.43066H9.85596L11.8018 12.4141H11.8213C11.818 12.3701 11.8107 12.2293 11.7993 11.9917C11.7879 11.7524 11.7839 11.5815 11.7871 11.479V9.43066H12.1753V13Z" fill="#2DCE89"/>
</svg>
