<svg width="26" height="23" viewBox="0 0 26 23" fill="none" xmlns="http://www.w3.org/2000/svg">
  <rect x="0.5" y="6.5" width="25" height="10" rx="5" fill="white" stroke="#F5365C"/>
  <circle cx="7.5" cy="11.5" r="3.5" fill="#F5365C"/>
  <path d="M16.5889 11.2104C16.5889 11.7817 16.444 12.231 16.1543 12.5581C15.8662 12.8853 15.465 13.0488 14.9507 13.0488C14.425 13.0488 14.0189 12.8885 13.7324 12.5679C13.4476 12.2456 13.3052 11.7915 13.3052 11.2056C13.3052 10.6245 13.4484 10.1745 13.7349 9.85547C14.0213 9.53483 14.4282 9.37451 14.9556 9.37451C15.4683 9.37451 15.8687 9.53727 16.1567 9.86279C16.4448 10.1883 16.5889 10.6375 16.5889 11.2104ZM13.7446 11.2104C13.7446 11.6938 13.8472 12.0609 14.0522 12.3115C14.259 12.5605 14.5584 12.6851 14.9507 12.6851C15.3462 12.6851 15.6449 12.5605 15.8467 12.3115C16.0485 12.0625 16.1494 11.6955 16.1494 11.2104C16.1494 10.7303 16.0485 10.3665 15.8467 10.1191C15.6465 9.87012 15.3494 9.74561 14.9556 9.74561C14.5601 9.74561 14.259 9.87093 14.0522 10.1216C13.8472 10.3706 13.7446 10.7336 13.7446 11.2104ZM17.8022 13H17.3872V9.43066H19.377V9.79932H17.8022V11.1055H19.2817V11.4741H17.8022V13ZM20.3853 13H19.9702V9.43066H21.96V9.79932H20.3853V11.1055H21.8647V11.4741H20.3853V13Z" fill="#F5365C"/>
</svg>
