
  <svg width="120" height="40" viewBox="0 0 85 34" fill="none" xmlns="http://www.w3.org/2000/svg">
    <path
      d="M80.1132 20.6548C79.2492 19.8104 78.087 19.3406 76.8789 19.3475C75.6708 19.3544 74.5142 19.8373 73.6599 20.6915C72.8056 21.5457 72.3226 22.7023 72.3155 23.9104C72.3085 25.1184 72.778 26.2806 73.6223 27.1447L76.8669 32.0917L80.1132 27.1278C80.5399 26.7037 80.8786 26.1995 81.1097 25.644C81.3408 25.0886 81.4598 24.4929 81.4598 23.8913C81.4598 23.2897 81.3408 22.694 81.1097 22.1385C80.8786 21.5831 80.5399 21.0788 80.1132 20.6548Z"
      fill="#0072ED"
    ></path>
    <path
      d="M76.8701 26.6851C76.3143 26.6836 75.7715 26.5174 75.3102 26.2074C74.8489 25.8974 74.4899 25.4575 74.2786 24.9435C74.0673 24.4295 74.0132 23.8643 74.1231 23.3195C74.2329 22.7747 74.5018 22.2747 74.8958 21.8827C75.2898 21.4907 75.7911 21.2244 76.3365 21.1173C76.8818 21.0103 77.4467 21.0673 77.9597 21.2813C78.4726 21.4952 78.9106 21.8565 79.2182 22.3193C79.5258 22.7822 79.6892 23.3259 79.6879 23.8817C79.6841 24.6265 79.3857 25.3396 78.8576 25.8649C78.3296 26.3902 77.615 26.6851 76.8701 26.6851Z"
      fill="white"
    ></path>
    <path
      d="M56.0097 10.9188C56.3576 11.3089 56.5461 11.8156 56.5378 12.3383C56.53 12.6561 56.4582 12.9691 56.3265 13.2584C56.2009 13.5633 56.0391 13.8521 55.8449 14.1186L50.3809 21.6933H54.8184C55.3822 21.666 55.936 21.8488 56.373 22.2062C56.5752 22.3933 56.7331 22.623 56.8354 22.8788C56.9377 23.1345 56.982 23.4099 56.9646 23.6848C56.987 23.983 56.9459 24.2826 56.8439 24.5637C56.7419 24.8448 56.5813 25.1011 56.373 25.3155C55.9448 25.6914 55.3875 25.8862 54.8184 25.8588H46.5195C46.2212 25.8791 45.922 25.8312 45.6449 25.7188C45.3678 25.6064 45.1199 25.4323 44.92 25.2099C44.561 24.7837 44.3682 24.242 44.3775 23.6848C44.4221 23.1382 44.6204 22.6153 44.9495 22.1766L50.5641 14.4802H46.5804C46.2936 14.4925 46.0072 14.4452 45.7396 14.3412C45.472 14.2372 45.2289 14.0788 45.0257 13.8761C44.8288 13.6726 44.6749 13.4316 44.5733 13.1674C44.4717 12.9032 44.4244 12.6212 44.4342 12.3383C44.4265 12.0689 44.4751 11.8008 44.577 11.5513C44.6788 11.3018 44.8316 11.0763 45.0257 10.8892C45.2333 10.6946 45.4779 10.5434 45.745 10.4448C46.012 10.3461 46.296 10.3019 46.5804 10.3147H54.3681C54.6693 10.2893 54.9723 10.3302 55.2559 10.4346C55.5396 10.539 55.7968 10.7043 56.0097 10.9188Z"
      fill="#13ce66"
    ></path>
    <path
      d="M62.8453 25.9509L57.8347 13.8186C57.737 13.6069 57.6661 13.3838 57.6235 13.1545C57.5876 12.9653 57.5679 12.7734 57.5645 12.5808C57.5502 12.2641 57.6111 11.9486 57.7423 11.66C57.8734 11.3715 58.0709 11.118 58.3188 10.9205C58.8136 10.5203 59.4332 10.3065 60.0695 10.3164C60.5164 10.3063 60.9551 10.4386 61.3219 10.6941C61.6795 10.9537 61.9479 11.3176 62.0907 11.7359L65.0479 20.3685L68.3684 11.8263C68.5226 11.4364 68.7476 11.0783 69.0318 10.7701C69.1995 10.61 69.3989 10.4868 69.6172 10.4087C69.8356 10.3305 70.068 10.2991 70.2992 10.3164C70.8837 10.3022 71.4512 10.514 71.8834 10.9078C72.0961 11.0995 72.2644 11.3353 72.3765 11.5987C72.4885 11.8621 72.5416 12.1468 72.5322 12.4329C72.532 12.7179 72.4965 13.0017 72.4266 13.2779C72.3707 13.5148 72.2951 13.7465 72.2003 13.9707L67.1586 26.1055C66.7853 27.0436 66.3032 27.9346 65.7223 28.7603C65.2733 29.3979 64.7342 29.9671 64.1219 30.4501C63.6011 30.8565 63.007 31.1591 62.372 31.3415C61.7578 31.511 61.1234 31.5963 60.4862 31.595C59.7528 31.6532 59.0205 31.4676 58.4034 31.0669C58.1823 30.8883 58.0068 30.6597 57.8912 30.4C57.7756 30.1403 57.7232 29.8569 57.7384 29.5731C57.7231 29.0119 57.9233 28.4662 58.2978 28.048C58.5108 27.8323 58.7681 27.6653 59.0518 27.5586C59.3354 27.4518 59.6389 27.4078 59.9412 27.4295C60.5747 27.4527 61.2064 27.3502 61.8 27.1279C62.0431 27.0185 62.261 26.8602 62.4401 26.6628C62.6192 26.4653 62.7557 26.2331 62.8409 25.9805L62.8706 25.8918L62.8453 25.9509Z"
      fill="#13ce66"
    ></path>


    <path
      d="M17.4491 10.7539C17.8296 10.4406 18.3149 10.2835 18.8068 10.3146C19.1309 10.2947 19.4557 10.3406 19.7617 10.4495C20.0676 10.5584 20.3484 10.7281 20.5871 10.9483C20.8017 11.1723 20.9685 11.4376 21.0774 11.7281C21.1864 12.0186 21.2352 12.3282 21.2208 12.6381C21.2193 12.7893 21.2089 12.9402 21.1896 13.0902C21.1433 13.3608 21.0623 13.6243 20.9487 13.8743L17.0561 24.1967C16.8825 24.6975 16.5615 25.134 16.1352 25.4489C15.7504 25.7185 15.2911 25.8611 14.8214 25.857C14.3382 25.8566 13.864 25.7264 13.4483 25.4801C13.2116 25.3232 13.0083 25.1209 12.8502 24.885C12.6922 24.649 12.5824 24.3841 12.5273 24.1055L10.5967 18.1614L8.66428 24.1367C8.60813 24.4203 8.49151 24.6885 8.32237 24.9229C8.15324 25.1574 7.93564 25.3526 7.68424 25.4954C7.28144 25.7176 6.83186 25.8415 6.37209 25.857C5.87971 25.8718 5.39467 25.7346 4.983 25.4641C4.55367 25.1365 4.23728 24.6831 4.07804 24.1671L0.302071 13.8759C0.20068 13.5954 0.127218 13.3639 0.0756779 13.1831C0.0280329 13.016 0.00301466 12.8432 0.00131365 12.6694C-0.0116206 12.2829 0.0711255 11.8992 0.242146 11.5524C0.387074 11.2688 0.593436 11.0211 0.84624 10.8274C1.0897 10.646 1.36603 10.5134 1.65991 10.4371C1.95514 10.3566 2.2597 10.3154 2.56569 10.3146C3.02039 10.3011 3.46815 10.428 3.84824 10.6779C4.21069 10.9326 4.47231 11.3063 4.58755 11.734L6.63902 18.7689L8.44975 13.2769C8.55926 12.7179 8.88461 12.2245 9.35543 11.9039C9.74535 11.661 10.1948 11.5303 10.6542 11.5262C11.1033 11.5335 11.5417 11.6642 11.9216 11.9039C12.3938 12.221 12.7364 12.6972 12.8873 13.2456L14.6676 18.7689L16.7207 11.9782C16.8469 11.5112 17.0988 11.0877 17.4491 10.7539Z"
      fill="#13ce66"
    ></path>
    <path
      d="M31.9935 10.9485C32.4385 10.5409 33.0202 10.3149 33.6236 10.3149C34.2269 10.3149 34.8084 10.5409 35.2534 10.9485C35.4707 11.1543 35.6422 11.4037 35.7565 11.6803C35.8708 11.9569 35.9253 12.2546 35.9166 12.5538V18.9516C35.9284 19.9481 35.7653 20.939 35.4349 21.8793C35.1353 22.7281 34.6619 23.5051 34.045 24.1606C33.4327 24.8009 32.6924 25.3047 31.872 25.6392C30.9707 26.0017 30.0061 26.1812 29.0346 26.1673C28.0586 26.1801 27.0897 26.0007 26.183 25.6392C25.3572 25.307 24.6116 24.803 23.9955 24.1606C23.3786 23.5053 22.9058 22.7283 22.6073 21.8793C22.276 20.9392 22.1124 19.9483 22.124 18.9516V12.5496C22.1153 12.2504 22.1698 11.9527 22.2841 11.676C22.3984 11.3994 22.5699 11.15 22.7873 10.9442C23.2324 10.5366 23.8141 10.3105 24.4177 10.3105C25.0212 10.3105 25.6028 10.5366 26.0479 10.9442C26.2654 11.1499 26.4369 11.3993 26.5512 11.676C26.6655 11.9526 26.72 12.2504 26.7111 12.5496V19.0674C26.6695 19.8251 26.8707 20.5763 27.2856 21.2118C27.4896 21.4768 27.7562 21.6871 28.0614 21.8238C28.3666 21.9605 28.7011 22.0193 29.0346 21.995C29.3665 22.0205 29.6995 21.9622 30.0029 21.8253C30.3063 21.6884 30.5704 21.4775 30.7709 21.2118C31.175 20.5722 31.37 19.8227 31.3287 19.0674V12.5496C31.3205 12.2509 31.3754 11.9539 31.49 11.678C31.6046 11.402 31.7762 11.1534 31.9935 10.9485Z"
      fill="#13ce66"
    ></path>
    <path
      d="M42.1261 8.60204C42.3573 8.82526 42.5373 9.09588 42.654 9.39531C42.7706 9.69474 42.8211 10.0159 42.8019 10.3367C42.8347 10.6648 42.789 10.9961 42.6684 11.303C42.5478 11.61 42.3559 11.8838 42.1083 12.1017C41.6204 12.4627 41.0252 12.649 40.4185 12.6307C39.8093 12.6496 39.214 12.4456 38.7445 12.0569C38.5097 11.8395 38.3271 11.5719 38.21 11.2741C38.093 10.9762 38.0447 10.6558 38.0687 10.3367C38.0528 10.0195 38.1036 9.7025 38.2179 9.40618C38.3321 9.10986 38.5072 8.84081 38.7319 8.6164C38.9579 8.4045 39.2235 8.23941 39.5135 8.13065C39.8036 8.02189 40.1122 7.97161 40.4218 7.98271C41.0485 7.96153 41.6592 8.18344 42.1261 8.60204Z"
      fill="#13ce66"
    ></path>
    <path
      d="M42.0786 14.2148C41.6323 13.7979 41.0443 13.5659 40.4335 13.5659C39.8227 13.5659 39.2347 13.7979 38.7884 14.2148C38.5781 14.4207 38.4122 14.6675 38.3008 14.9399C38.1893 15.2124 38.1348 15.5048 38.1405 15.7991V23.629C38.1347 23.9233 38.1891 24.2157 38.3006 24.4882C38.412 24.7606 38.578 25.0074 38.7884 25.2132C39.2352 25.6293 39.823 25.8606 40.4335 25.8606C41.044 25.8606 41.6318 25.6293 42.0786 25.2132C42.2896 25.0077 42.4561 24.761 42.5679 24.4885C42.6797 24.216 42.7343 23.9235 42.7284 23.629V15.7991C42.7342 15.5046 42.6797 15.2121 42.5679 14.9396C42.4561 14.6671 42.2895 14.4204 42.0786 14.2148Z"
      fill="#13ce66"
    ></path>
    <path
      d="M37.0928 6.89597C36.9447 7.04159 36.745 7.12281 36.5373 7.12193C36.3296 7.12105 36.1307 7.03815 35.9838 6.89129C35.8369 6.74442 35.7541 6.54549 35.7532 6.33779C35.7523 6.1301 35.8334 5.93046 35.9791 5.78236C36.564 5.19732 37.2584 4.73324 38.0227 4.41661C38.787 4.09998 39.6062 3.93701 40.4335 3.93701C41.2608 3.93701 42.08 4.09998 42.8443 4.41661C43.6086 4.73324 44.303 5.19732 44.8879 5.78236C45.0382 5.92802 45.1246 6.1274 45.1278 6.33664C45.1311 6.54588 45.0509 6.74784 44.9052 6.89809C44.7596 7.04834 44.5602 7.13457 44.351 7.13782C44.1417 7.14107 43.9399 7.06107 43.7897 6.91541L43.7701 6.89597C42.8839 6.01018 41.6823 5.51257 40.4294 5.51257C39.1764 5.51257 37.9746 6.01018 37.0884 6.89597H37.0928Z"
      fill="#0072ED"
    ></path>
    <path
      d="M34.3097 4.11202C34.1617 4.25776 33.9621 4.33913 33.7544 4.33841C33.5467 4.3377 33.3477 4.25495 33.2007 4.10819C33.0537 3.96144 32.9705 3.76256 32.9695 3.55486C32.9684 3.34716 33.0496 3.14746 33.1951 2.99925C34.1456 2.0484 35.2742 1.29412 36.5163 0.779497C37.7583 0.264877 39.0895 0 40.4339 0C41.7784 0 43.1098 0.264877 44.3518 0.779497C45.5939 1.29412 46.7225 2.0484 47.6729 2.99925C47.8205 3.14681 47.9034 3.34695 47.9034 3.55564C47.9034 3.76432 47.8205 3.96446 47.6729 4.11202C47.5254 4.25958 47.3253 4.34248 47.1166 4.34248C46.9079 4.34248 46.7076 4.25958 46.5601 4.11202C45.7557 3.30748 44.8008 2.66926 43.7497 2.23383C42.6986 1.79841 41.572 1.5743 40.4344 1.5743C39.2967 1.5743 38.1703 1.79841 37.1192 2.23383C36.0682 2.66926 35.113 3.30748 34.3086 4.11202"
      fill="#0072ED"
    ></path>
    <path
      d="M84.1685 31.3066C84.1685 31.3016 84.1685 31.2956 84.1685 31.2897C84.0131 30.4837 83.0254 29.8652 81.2367 29.4309H81.2165C81.1075 29.4039 81.0002 29.3785 80.8963 29.3548C80.8685 29.349 80.8401 29.3461 80.8117 29.3464C80.6924 29.3461 80.5773 29.391 80.4897 29.4721C80.4021 29.5532 80.3484 29.6645 80.3396 29.7836C80.3307 29.9026 80.3673 30.0206 80.4419 30.1138C80.5164 30.207 80.6235 30.2685 80.7416 30.286C82.5489 30.689 82.6722 31.2737 82.6722 31.5187C82.6718 31.5557 82.6647 31.5924 82.6511 31.6269C82.4365 32.1963 80.5955 33.0945 76.8736 33.0945C73.4001 33.0945 71.565 32.3121 71.1611 31.7426C71.1103 31.6773 71.0807 31.598 71.0765 31.5153C71.0765 31.2703 71.2014 30.6856 73.0087 30.2826C73.1268 30.2651 73.2341 30.2036 73.3087 30.1104C73.3833 30.0172 73.4197 29.8992 73.4108 29.7802C73.4019 29.6611 73.3484 29.5499 73.2608 29.4688C73.1732 29.3877 73.0582 29.3427 72.9388 29.343C72.9104 29.3429 72.882 29.3457 72.8542 29.3515C72.7596 29.3717 72.6632 29.3954 72.5669 29.4182H72.5543C70.7403 29.85 69.7398 30.4727 69.5826 31.2838V31.3007C69.5692 31.3709 69.5623 31.4422 69.5616 31.5136C69.5615 31.5642 69.5649 31.6148 69.5717 31.6649C69.7914 33.2069 73.3569 33.996 76.8794 33.996C80.4027 33.996 83.9685 33.2069 84.1873 31.6649C84.1943 31.6148 84.1979 31.5642 84.1982 31.5136C84.1941 31.4439 84.1841 31.3747 84.1685 31.3066Z"
      fill="#13ce66"
    ></path>
  </svg>
